<?xml version="1.0" encoding="UTF-8" standalone="no"?>
<svg width="200px" height="200px" viewBox="0 0 150 150" version="1.1" xmlns="http://www.w3.org/2000/svg" xmlns:xlink="http://www.w3.org/1999/xlink" preserveAspectRatio="xMidYMid">
	<g fill="#ffbf00">
		<g transform="translate(50,50)">
			<g transform="translate(-50,0)">
				<path d="M36.8978565,44.5490574 C34.9444998,44.9711146 33.0200511,43.7297213 32.597168,41.7763646 C32.1759367,39.8230079 33.4165041,37.8985593 35.3698608,37.4756761 C37.3232174,37.0536189 39.2476661,38.2950122 39.6705493,40.2483689 C40.0926064,42.2017255 38.8512132,44.1261742 36.8978565,44.5490574 L36.8978565,44.5490574 Z"></path>
			</g>
			<g transform="translate(-50,-25)">
				<path d="M36.8978565,44.5490574 C34.9444998,44.9711146 33.0200511,43.7297213 32.597168,41.7763646 C32.1759367,39.8230079 33.4165041,37.8985593 35.3698608,37.4756761 C37.3232174,37.0536189 39.2476661,38.2950122 39.6705493,40.2483689 C40.0926064,42.2017255 38.8512132,44.1261742 36.8978565,44.5490574 L36.8978565,44.5490574 Z"></path>
			</g>
			<g transform="translate(-50,-50)">
				<path d="M36.8978565,44.5490574 C34.9444998,44.9711146 33.0200511,43.7297213 32.597168,41.7763646 C32.1759367,39.8230079 33.4165041,37.8985593 35.3698608,37.4756761 C37.3232174,37.0536189 39.2476661,38.2950122 39.6705493,40.2483689 C40.0926064,42.2017255 38.8512132,44.1261742 36.8978565,44.5490574 L36.8978565,44.5490574 Z"></path>
			</g>
			<g transform="translate(19,-6) rotate(40)">
				<path d="M62.388258,43.8671979 C69.0603593,35.9851519 71.3900262,28.0575866 68.1855995,22.5073565 C65.8277219,18.4233925 60.8431015,16.2672309 54.2186198,16.1810789 C53.6415875,16.1735745 53.1677268,16.6352682 53.1602223,17.2123006 C53.1527178,17.7893331 53.6144118,18.2631938 54.1914441,18.2706981 C60.14933,18.348181 64.443683,20.2057586 66.3757829,23.5522545 C69.0374426,28.1623839 66.9598981,35.232008 60.7932035,42.5169946 C60.4203551,42.9574567 60.4751668,43.6167751 60.9156289,43.9896234 C61.356091,44.3624717 62.0154096,44.3076599 62.388258,43.8671979 L62.388258,43.8671979 L62.388258,43.8671979 Z M45.2410357,17.1539843 C39.2083564,18.4465122 32.7871134,20.9736647 26.6202521,24.5341037 C11.361226,33.3439065 1.40741722,46.3342765 2.78983495,55.753472 C2.87363314,56.3244366 3.40442327,56.7193631 3.97538788,56.6355649 C4.54635249,56.5517667 4.94127889,56.0209763 4.8574807,55.4500117 C3.63003956,47.0867598 13.065275,34.7731619 27.6651501,26.3439201 C33.6474955,22.8900113 39.8649735,20.4430528 45.6788475,19.1974049 C46.2431225,19.0765065 46.6025503,18.5210637 46.4816519,17.9567887 C46.3607535,17.3925137 45.8053107,17.0330859 45.2410357,17.1539843 L45.2410357,17.1539843 L45.2410357,17.1539843 Z"></path>
			</g>
			<g transform="translate(19,-31) rotate(40)">
				<path d="M62.388258,43.8671979 C69.0603593,35.9851519 71.3900262,28.0575866 68.1855995,22.5073565 C65.8277219,18.4233925 60.8431015,16.2672309 54.2186198,16.1810789 C53.6415875,16.1735745 53.1677268,16.6352682 53.1602223,17.2123006 C53.1527178,17.7893331 53.6144118,18.2631938 54.1914441,18.2706981 C60.14933,18.348181 64.443683,20.2057586 66.3757829,23.5522545 C69.0374426,28.1623839 66.9598981,35.232008 60.7932035,42.5169946 C60.4203551,42.9574567 60.4751668,43.6167751 60.9156289,43.9896234 C61.356091,44.3624717 62.0154096,44.3076599 62.388258,43.8671979 L62.388258,43.8671979 L62.388258,43.8671979 Z M45.2410357,17.1539843 C39.2083564,18.4465122 32.7871134,20.9736647 26.6202521,24.5341037 C11.361226,33.3439065 1.40741722,46.3342765 2.78983495,55.753472 C2.87363314,56.3244366 3.40442327,56.7193631 3.97538788,56.6355649 C4.54635249,56.5517667 4.94127889,56.0209763 4.8574807,55.4500117 C3.63003956,47.0867598 13.065275,34.7731619 27.6651501,26.3439201 C33.6474955,22.8900113 39.8649735,20.4430528 45.6788475,19.1974049 C46.2431225,19.0765065 46.6025503,18.5210637 46.4816519,17.9567887 C46.3607535,17.3925137 45.8053107,17.0330859 45.2410357,17.1539843 L45.2410357,17.1539843 L45.2410357,17.1539843 Z"></path>
			</g>
			<g transform="translate(19,-56) rotate(40)">
				<path d="M62.388258,43.8671979 C69.0603593,35.9851519 71.3900262,28.0575866 68.1855995,22.5073565 C65.8277219,18.4233925 60.8431015,16.2672309 54.2186198,16.1810789 C40.1415875,16.5735745 43.1677268,19.6352682 44.1602223,19.5123006 C53.1527178,17.7893331 53.6144118,18.2631938 54.1914441,18.2706981 C60.14933,18.348181 64.443683,20.2057586 66.3757829,23.5522545 C69.0374426,28.1623839 66.9598981,35.232008 60.7932035,42.5169946 C60.4203551,42.9574567 60.4751668,43.6167751 60.9156289,43.9896234 C61.356091,44.3624717 62.0154096,44.3076599 62.388258,43.8671979 Z M45.2410357,17.1539843 C39.2083564,18.4465122 32.7871134,20.9736647 26.6202521,24.5341037 C11.361226,33.3439065 1.40741722,46.3342765 2.78983495,55.753472 C2.87363314,56.3244366 3.40442327,56.7193631 3.97538788,56.6355649 C4.54635249,56.5517667 4.94127889,56.0209763 4.8574807,55.4500117 C3.63003956,47.0867598 13.065275,34.7731619 27.6651501,26.3439201 C33.6474955,22.8900113 39.8649735,20.4430528 45.6788475,19.1974049 C46.2431225,19.0765065 46.6025503,18.5210637 46.4816519,17.9567887 C46.3607535,17.3925137 45.8053107,17.0330859 45.2410357,17.1539843 Z"></path>
			</g>
		</g>
 </g>
</svg>
